# xmcd
#
# Track frame offsets: 
#        150
#        13437
#        26642
#        41350
#        50821
#        64243
#        79861
#        91351
#        102132
#        120876
#        141018
#        153254
#        165940
#        177409
#        190294
#        208340
#        220561
#        237032
#
# Disc length: 3397 seconds
#
# Revision: 2
# Processed by: cddbd v1.5.2PL0 Copyright (c) Steve Scherf et al.
# Submitted via: ExactAudioCopy v0.99pb5
#
DISCID=ef0d4312
DTITLE=Various Artist - Jazz and Blues 12 - Jazz Singers Collection
DYEAR=1999
DGENRE=Jazz
TTITLE0=Al Jolson - My Mammy
TTITLE1=Frank Sinatra - You Make Me Feel So Young
TTITLE2=Sarah Vaughan - Summertime
TTITLE3=Tonny Bennett - Chicago
TTITLE4=Ella Fitzgerald - Mr.Paganini-You'll have to swing it
TTITLE5=Sarah Vaughan - Goodnight my love
TTITLE6=Lena Home - Old Devil Moon
TTITLE7=Ray Charles - I Wonder Who's Kissing Her Now
TTITLE8=Nina Simone - I love you Porgy
TTITLE9=Carmen McRae - Body and soul
TTITLE10=Louis Jordan - Caldonia
TTITLE11=Judy Garland - Embraceable You
TTITLE12=Louis Armstrong - Hello Dolly
TTITLE13=Fred Astoire - Puttin' on the Ritz
TTITLE14=Louis Armstrong - Cabaret
TTITLE15=Bing Crosby - But Beautiful
TTITLE16=The Ink Spots - If dindn't care
TTITLE17=Al Jarreau - Lean on Me
EXTD=YEAR: 1999
EXTT0=
EXTT1=
EXTT2=
EXTT3=
EXTT4=
EXTT5=
EXTT6=
EXTT7=
EXTT8=
EXTT9=
EXTT10=
EXTT11=
EXTT12=
EXTT13=
EXTT14=
EXTT15=
EXTT16=
EXTT17=
PLAYORDER=
